<svg id="visual" viewBox="0 0 960 540" width="960" height="540" xmlns="http://www.w3.org/2000/svg" xmlns:xlink="http://www.w3.org/1999/xlink" version="1.1"><rect width="960" height="540" fill="#C9ADA7"></rect><g><g transform="translate(761 167)"><path d="M70.5 -79C88.3 -52.6 97.7 -26.3 99 1.3C100.3 29 93.7 58 75.8 88.9C58 119.7 29 152.5 -6.3 158.8C-41.6 165.1 -83.1 144.9 -104.4 114C-125.7 83.1 -126.7 41.6 -127.4 -0.7C-128.1 -43 -128.5 -86 -107.2 -112.4C-86 -138.8 -43 -148.6 -8.3 -140.2C26.3 -131.9 52.6 -105.4 70.5 -79Z" fill="#9A8C98"></path></g><g transform="translate(199 138)"><path d="M55.6 -54.4C72 -39.1 85.4 -19.6 91 5.6C96.7 30.8 94.5 61.6 78 86.7C61.6 111.8 30.8 131.1 4.5 126.7C-21.9 122.2 -43.7 93.9 -62.8 68.8C-81.8 43.7 -98.1 21.9 -100.9 -2.9C-103.8 -27.6 -93.2 -55.1 -74.2 -70.5C-55.1 -85.8 -27.6 -88.8 -4 -84.8C19.6 -80.8 39.1 -69.7 55.6 -54.4Z" fill="#9A8C98"></path></g><g transform="translate(616 514)"><path d="M49 -53.5C58.8 -39.2 58.8 -19.6 57.2 -1.6C55.6 16.4 52.4 32.7 42.5 42C32.7 51.3 16.4 53.6 -3.8 57.4C-24 61.2 -48 66.6 -64.2 57.3C-80.5 48 -89.1 24 -87 2.1C-84.8 -19.7 -72 -39.5 -55.7 -53.7C-39.5 -68 -19.7 -76.8 -0.1 -76.7C19.6 -76.7 39.2 -67.7 49 -53.5Z" fill="#9A8C98"></path></g></g></svg>