<svg id="visual" viewBox="0 0 960 540" width="960" height="540" xmlns="http://www.w3.org/2000/svg" xmlns:xlink="http://www.w3.org/1999/xlink" version="1.1"><rect width="960" height="540" fill="#C9ADA7"></rect><g><g transform="translate(791 202)"><path d="M76.5 -63.5C105.8 -47.2 140.8 -23.6 148 7.2C155.1 37.9 134.4 75.8 105.1 101.8C75.8 127.8 37.9 141.9 1.6 140.3C-34.7 138.7 -69.3 121.3 -87.5 95.3C-105.6 69.3 -107.1 34.7 -110 -2.9C-112.9 -40.5 -117.2 -81 -99.1 -97.3C-81 -113.6 -40.5 -105.7 -8.5 -97.2C23.6 -88.8 47.2 -79.8 76.5 -63.5Z" fill="#9A8C98"></path></g><g transform="translate(67 411)"><path d="M51 -51.8C61.9 -40 63.9 -20 61.3 -2.6C58.7 14.8 51.6 29.6 40.6 41.6C29.6 53.5 14.8 62.6 -2 64.6C-18.8 66.6 -37.6 61.5 -48.3 49.6C-59.1 37.6 -61.7 18.8 -62.6 -0.9C-63.5 -20.6 -62.6 -41.1 -51.8 -53C-41.1 -64.9 -20.6 -68 -0.3 -67.7C20 -67.5 40 -63.7 51 -51.8Z" fill="#9A8C98"></path></g><g transform="translate(360 87)"><path d="M62.5 -54.3C83.6 -41.3 105.3 -20.7 108.1 2.8C110.9 26.3 94.8 52.5 73.7 66.7C52.5 80.8 26.3 82.8 3.7 79.1C-18.9 75.4 -37.7 66 -56 51.9C-74.3 37.7 -91.9 18.9 -96.7 -4.7C-101.4 -28.4 -93.3 -56.7 -75 -69.7C-56.7 -82.6 -28.4 -80.2 -3.9 -76.3C20.7 -72.5 41.3 -67.2 62.5 -54.3Z" fill="#9A8C98"></path></g></g></svg>